<svg xmlns="http://www.w3.org/2000/svg" width="600" height="600" viewBox="0 0 600 600">
  <defs>
    <linearGradient id="g" x1="0" y1="0" x2="1" y2="1">
      <stop offset="0" stop-color="#FF8C6B"/>
      <stop offset="1" stop-color="#6778D6"/>
    </linearGradient>
  </defs>
  <rect width="600" height="600" rx="36" fill="url(#g)"/>
  <rect x="13.5" y="13.5" width="48.0" height="48.0" rx="4" fill="#ffffff" opacity="0.10"/><rect x="88.5" y="13.5" width="48.0" height="48.0" rx="4" fill="#ffffff" opacity="0.04"/><rect x="163.5" y="13.5" width="48.0" height="48.0" rx="4" fill="#ffffff" opacity="0.09"/><rect x="238.5" y="13.5" width="48.0" height="48.0" rx="4" fill="#ffffff" opacity="0.16"/><rect x="388.5" y="13.5" width="48.0" height="48.0" rx="4" fill="#ffffff" opacity="0.05"/><rect x="13.5" y="88.5" width="48.0" height="48.0" rx="4" fill="#ffffff" opacity="0.09"/><rect x="88.5" y="88.5" width="48.0" height="48.0" rx="4" fill="#ffffff" opacity="0.12"/><rect x="163.5" y="88.5" width="48.0" height="48.0" rx="4" fill="#ffffff" opacity="0.10"/><rect x="238.5" y="88.5" width="48.0" height="48.0" rx="4" fill="#ffffff" opacity="0.03"/><rect x="313.5" y="88.5" width="48.0" height="48.0" rx="4" fill="#ffffff" opacity="0.17"/><rect x="463.5" y="88.5" width="48.0" height="48.0" rx="4" fill="#ffffff" opacity="0.08"/><rect x="13.5" y="163.5" width="48.0" height="48.0" rx="4" fill="#ffffff" opacity="0.08"/><rect x="238.5" y="163.5" width="48.0" height="48.0" rx="4" fill="#ffffff" opacity="0.03"/><rect x="388.5" y="163.5" width="48.0" height="48.0" rx="4" fill="#ffffff" opacity="0.04"/><rect x="463.5" y="163.5" width="48.0" height="48.0" rx="4" fill="#ffffff" opacity="0.06"/><rect x="538.5" y="163.5" width="48.0" height="48.0" rx="4" fill="#ffffff" opacity="0.14"/><rect x="13.5" y="238.5" width="48.0" height="48.0" rx="4" fill="#ffffff" opacity="0.06"/><rect x="88.5" y="238.5" width="48.0" height="48.0" rx="4" fill="#ffffff" opacity="0.17"/><rect x="163.5" y="238.5" width="48.0" height="48.0" rx="4" fill="#ffffff" opacity="0.16"/><rect x="238.5" y="238.5" width="48.0" height="48.0" rx="4" fill="#ffffff" opacity="0.04"/><rect x="388.5" y="238.5" width="48.0" height="48.0" rx="4" fill="#ffffff" opacity="0.14"/><rect x="538.5" y="238.5" width="48.0" height="48.0" rx="4" fill="#ffffff" opacity="0.04"/><rect x="13.5" y="313.5" width="48.0" height="48.0" rx="4" fill="#ffffff" opacity="0.02"/><rect x="88.5" y="313.5" width="48.0" height="48.0" rx="4" fill="#ffffff" opacity="0.07"/><rect x="388.5" y="313.5" width="48.0" height="48.0" rx="4" fill="#ffffff" opacity="0.08"/><rect x="463.5" y="313.5" width="48.0" height="48.0" rx="4" fill="#ffffff" opacity="0.08"/><rect x="13.5" y="388.5" width="48.0" height="48.0" rx="4" fill="#ffffff" opacity="0.08"/><rect x="88.5" y="388.5" width="48.0" height="48.0" rx="4" fill="#ffffff" opacity="0.04"/><rect x="238.5" y="388.5" width="48.0" height="48.0" rx="4" fill="#ffffff" opacity="0.05"/><rect x="313.5" y="463.5" width="48.0" height="48.0" rx="4" fill="#ffffff" opacity="0.06"/><rect x="388.5" y="463.5" width="48.0" height="48.0" rx="4" fill="#ffffff" opacity="0.04"/><rect x="463.5" y="463.5" width="48.0" height="48.0" rx="4" fill="#ffffff" opacity="0.12"/><rect x="13.5" y="538.5" width="48.0" height="48.0" rx="4" fill="#ffffff" opacity="0.17"/><rect x="88.5" y="538.5" width="48.0" height="48.0" rx="4" fill="#ffffff" opacity="0.06"/><rect x="238.5" y="538.5" width="48.0" height="48.0" rx="4" fill="#ffffff" opacity="0.02"/><rect x="388.5" y="538.5" width="48.0" height="48.0" rx="4" fill="#ffffff" opacity="0.16"/><rect x="538.5" y="538.5" width="48.0" height="48.0" rx="4" fill="#ffffff" opacity="0.02"/>
  <text x="300" y="320" font-family="Poppins, Arial, sans-serif" font-size="40"
        font-weight="700" fill="#F4F3F9" text-anchor="middle">Pulse Garden</text>
</svg>