<svg xmlns="http://www.w3.org/2000/svg" width="800" height="600" viewBox="0 0 800 600">
  <defs>
    <linearGradient id="g2" x1="0" y1="0" x2="1" y2="1">
      <stop offset="0" stop-color="#FFC15E"/>
      <stop offset="1" stop-color="#FF8C6B"/>
    </linearGradient>
  </defs>
  <rect width="800" height="600" fill="#D9D8E6"/>
  <rect x="24" y="24" width="752" height="552" rx="28" fill="url(#g2)"/>
  <rect x="14.4" y="14.4" width="51.2" height="56.9" rx="4" fill="#ffffff" opacity="0.09"/><rect x="94.4" y="14.4" width="51.2" height="56.9" rx="4" fill="#ffffff" opacity="0.04"/><rect x="174.4" y="14.4" width="51.2" height="56.9" rx="4" fill="#ffffff" opacity="0.08"/><rect x="254.4" y="14.4" width="51.2" height="56.9" rx="4" fill="#ffffff" opacity="0.14"/><rect x="414.4" y="14.4" width="51.2" height="56.9" rx="4" fill="#ffffff" opacity="0.05"/><rect x="654.4" y="14.4" width="51.2" height="56.9" rx="4" fill="#ffffff" opacity="0.08"/><rect x="734.4" y="14.4" width="51.2" height="56.9" rx="4" fill="#ffffff" opacity="0.11"/><rect x="14.4" y="100.1" width="51.2" height="56.9" rx="4" fill="#ffffff" opacity="0.09"/><rect x="94.4" y="100.1" width="51.2" height="56.9" rx="4" fill="#ffffff" opacity="0.03"/><rect x="174.4" y="100.1" width="51.2" height="56.9" rx="4" fill="#ffffff" opacity="0.15"/><rect x="334.4" y="100.1" width="51.2" height="56.9" rx="4" fill="#ffffff" opacity="0.07"/><rect x="494.4" y="100.1" width="51.2" height="56.9" rx="4" fill="#ffffff" opacity="0.07"/><rect x="734.4" y="100.1" width="51.2" height="56.9" rx="4" fill="#ffffff" opacity="0.03"/><rect x="94.4" y="185.8" width="51.2" height="56.9" rx="4" fill="#ffffff" opacity="0.04"/><rect x="174.4" y="185.8" width="51.2" height="56.9" rx="4" fill="#ffffff" opacity="0.05"/><rect x="254.4" y="185.8" width="51.2" height="56.9" rx="4" fill="#ffffff" opacity="0.12"/><rect x="334.4" y="185.8" width="51.2" height="56.9" rx="4" fill="#ffffff" opacity="0.06"/><rect x="414.4" y="185.8" width="51.2" height="56.9" rx="4" fill="#ffffff" opacity="0.15"/><rect x="494.4" y="185.8" width="51.2" height="56.9" rx="4" fill="#ffffff" opacity="0.14"/><rect x="574.4" y="185.8" width="51.2" height="56.9" rx="4" fill="#ffffff" opacity="0.04"/><rect x="734.4" y="185.8" width="51.2" height="56.9" rx="4" fill="#ffffff" opacity="0.12"/><rect x="94.4" y="271.5" width="51.2" height="56.9" rx="4" fill="#ffffff" opacity="0.04"/><rect x="174.4" y="271.5" width="51.2" height="56.9" rx="4" fill="#ffffff" opacity="0.01"/><rect x="254.4" y="271.5" width="51.2" height="56.9" rx="4" fill="#ffffff" opacity="0.07"/><rect x="574.4" y="271.5" width="51.2" height="56.9" rx="4" fill="#ffffff" opacity="0.07"/><rect x="654.4" y="271.5" width="51.2" height="56.9" rx="4" fill="#ffffff" opacity="0.07"/><rect x="14.4" y="357.3" width="51.2" height="56.9" rx="4" fill="#ffffff" opacity="0.07"/><rect x="94.4" y="357.3" width="51.2" height="56.9" rx="4" fill="#ffffff" opacity="0.04"/><rect x="254.4" y="357.3" width="51.2" height="56.9" rx="4" fill="#ffffff" opacity="0.04"/><rect x="174.4" y="443.0" width="51.2" height="56.9" rx="4" fill="#ffffff" opacity="0.05"/><rect x="254.4" y="443.0" width="51.2" height="56.9" rx="4" fill="#ffffff" opacity="0.03"/><rect x="334.4" y="443.0" width="51.2" height="56.9" rx="4" fill="#ffffff" opacity="0.11"/><rect x="494.4" y="443.0" width="51.2" height="56.9" rx="4" fill="#ffffff" opacity="0.15"/><rect x="574.4" y="443.0" width="51.2" height="56.9" rx="4" fill="#ffffff" opacity="0.06"/><rect x="734.4" y="443.0" width="51.2" height="56.9" rx="4" fill="#ffffff" opacity="0.01"/><rect x="94.4" y="528.7" width="51.2" height="56.9" rx="4" fill="#ffffff" opacity="0.14"/><rect x="254.4" y="528.7" width="51.2" height="56.9" rx="4" fill="#ffffff" opacity="0.02"/><rect x="494.4" y="528.7" width="51.2" height="56.9" rx="4" fill="#ffffff" opacity="0.00"/><rect x="574.4" y="528.7" width="51.2" height="56.9" rx="4" fill="#ffffff" opacity="0.11"/>
  <text x="400" y="540" font-family="Poppins, Arial, sans-serif" font-size="30"
        font-weight="700" fill="#F4F3F9" text-anchor="middle">Field Sketch</text>
</svg>